<svg id="Layer_6" data-name="Layer 6" xmlns="http://www.w3.org/2000/svg" viewBox="0 0 866.01 248"><title>amberts-logo</title><path d="M122.5,200.5" transform="translate(-86.5 -101.5)"/><path d="M160,324.08a4,4,0,0,1-3-1.32C135.82,299.24,86.5,240.23,86.5,200.5a99.11,99.11,0,0,1,99-99,4,4,0,0,1,4,4v32a4,4,0,0,1-4,4,59.09,59.09,0,0,0-54,35.12,4,4,0,0,1-3.66,2.38,4.13,4.13,0,0,1-1.62-.34,4,4,0,0,1-2-5.28,67.38,67.38,0,0,1,57.28-39.75v-24A91.14,91.14,0,0,0,94.59,196.5H122.5a4,4,0,0,1,0,8H94.68c3.21,37,48.63,91.09,68.29,112.9a4,4,0,0,1-3,6.68Z" transform="translate(-86.5 -101.5)"/><path d="M92.55,202.5h30a2,2,0,0,0,0-4h-30a93.1,93.1,0,0,1,91-91v28a65.05,65.05,0,0,0-57.45,38.65,2,2,0,0,0,1,2.64,2.14,2.14,0,0,0,.81.17,2,2,0,0,0,1.83-1.19,61.08,61.08,0,0,1,55.8-36.31,2,2,0,0,0,2-2v-32a2,2,0,0,0-2-2,97.1,97.1,0,0,0-97,97c0,39,49,97.57,70,120.92a2,2,0,1,0,3-2.68C141.11,296.14,94.19,240.16,92.55,202.5Z" transform="translate(-86.5 -101.5)"/><path d="M185.5,349.5a4,4,0,0,1-4-4V267.37a67.17,67.17,0,0,1-57.73-40.79,4,4,0,1,1,7.36-3.12,59,59,0,0,0,108.74,0,4,4,0,0,1,3.69-2.44,4.08,4.08,0,0,1,1.55.31,4,4,0,0,1,2.13,5.25,67.16,67.16,0,0,1-57.74,40.81v69.42c4.24-4.1,10.35-10.36,17.54-18.29a4,4,0,1,1,5.92,5.37c-6,6.67-12.1,13-17.06,17.86C188.29,349.17,187.15,349.5,185.5,349.5Z" transform="translate(-86.5 -101.5)"/><path d="M245.4,225.78a2,2,0,1,0-3.68-1.56,61,61,0,0,1-112.43,0,2,2,0,0,0-3.68,1.56,64.9,64.9,0,0,0,57.89,39.66v80a2,2,0,0,0,2,2c.84,0,1.63,0,9-7.2,4.94-4.82,11-11.13,17-17.77a2,2,0,0,0-3-2.69c-9.47,10.44-17.09,18-21,21.58v-76A64.89,64.89,0,0,0,245.4,225.78Z" transform="translate(-86.5 -101.5)"/><path d="M234.94,295.63a4,4,0,0,1-3.15-6.46C251,264.62,274,230.31,276.31,204.5H248.5a4,4,0,0,1-4-4,58.9,58.9,0,0,0-36.06-54.37l-.11,0-.32-.17-.25-.15a4,4,0,0,1-1.76-3.51V108.61a5,5,0,0,1,.07-.65,2.93,2.93,0,0,1,.05-.29,3.54,3.54,0,0,1,.18-.49h0a4,4,0,0,1,2.89-2.39h0a4.05,4.05,0,0,1,.7-.07,1.21,1.21,0,0,1,.19,0,3.08,3.08,0,0,1,.61.06h0l.3.06a99.29,99.29,0,0,1,69.87,69.11,4,4,0,0,1-2.78,4.92A3.89,3.89,0,0,1,277,179a4,4,0,0,1-3.85-2.93,91.71,91.71,0,0,0-59.19-62v25.8a66.47,66.47,0,0,1,38.38,56.64H280.5a4,4,0,0,1,4,4c0,28.37-25.24,66.56-46.41,93.6A4,4,0,0,1,234.94,295.63Z" transform="translate(-86.5 -101.5)"/><path d="M280.5,198.5h-30A64.88,64.88,0,0,0,212,141.14v-29.8a93.27,93.27,0,0,1,63.11,64.2A2,2,0,0,0,277,177a2.05,2.05,0,0,0,.54-.07,2,2,0,0,0,1.39-2.47,97.33,97.33,0,0,0-68.46-67.71h-.16l-.34,0h0a2.38,2.38,0,0,0-.39,0h0a2,2,0,0,0-1.44,1.17h0a1.09,1.09,0,0,0-.1.25s0,.08,0,.12v0a1.58,1.58,0,0,0,0,.38h0v33.65a2,2,0,0,0,.88,1.76l.11.06a1.55,1.55,0,0,0,.22.12h0A60.92,60.92,0,0,1,246.5,200.5a2,2,0,0,0,2,2h29.94c-1.16,26.48-25,62.25-45.07,87.9a2,2,0,0,0,.34,2.81,2,2,0,0,0,1.23.42,2,2,0,0,0,1.58-.76c21-26.8,46-64.57,46-92.37A2,2,0,0,0,280.5,198.5Z" transform="translate(-86.5 -101.5)"/><path d="M423.31,249.2a9.59,9.59,0,0,1-10,10c-1.86,0-3.93-.94-6.2-2.8a10.13,10.13,0,0,1-3.4-7.2q-12.39,10-29.6,10-21.19,0-35.8-14Q323.51,231,323.51,210a50.53,50.53,0,0,1,50.6-50.6q21,0,35.2,14.8,14,14.6,14,35.8Zm-49.2-9.6a28.82,28.82,0,0,0,21.2-8.6q8.4-8.4,8.4-21a30.78,30.78,0,0,0-8.4-21.8,27.84,27.84,0,0,0-21.2-9.2,31.42,31.42,0,0,0-31,31,27.68,27.68,0,0,0,9.2,21Q360.91,239.59,374.11,239.6Z" transform="translate(-86.5 -101.5)"/><path d="M595.71,249.8a9.18,9.18,0,0,1-3,7,9.67,9.67,0,0,1-14,0,9.49,9.49,0,0,1-2.8-7V199.4a19.64,19.64,0,0,0-6-14.4,20.78,20.78,0,0,0-28.8,0,19.64,19.64,0,0,0-6,14.4v50.4a9.49,9.49,0,0,1-2.8,7,9.67,9.67,0,0,1-14,0,9.18,9.18,0,0,1-3-7V199.4a20.37,20.37,0,0,0-34.6-14.4,19.64,19.64,0,0,0-6,14.4v50.4a9.49,9.49,0,0,1-2.8,7,9.59,9.59,0,0,1-7,3,10.25,10.25,0,0,1-10-10V199.4a40.29,40.29,0,0,1,40.2-40q18.6,0,30.2,13.8,11.81-13.8,30.2-13.8a40.29,40.29,0,0,1,40.2,40,1.19,1.19,0,0,1-.2.8,1.59,1.59,0,0,1,.2,1Z" transform="translate(-86.5 -101.5)"/><path d="M627.91,119a9.59,9.59,0,0,1,3-7,9.49,9.49,0,0,1,7-2.8,9.57,9.57,0,0,1,9.8,9.8v49.8a49.44,49.44,0,0,1,30.4-10.2q21,0,35.6,14.6t14.6,35.6a50.19,50.19,0,0,1-50.2,50.2q-20.6,0-35.4-14.8t-14.8-35.4Zm19.8,89.8a30.73,30.73,0,0,0,30.4,30.4,29.46,29.46,0,0,0,21.6-9q8.81-9.4,8.8-21.4a30.05,30.05,0,0,0-30.4-30.4,30.39,30.39,0,0,0-30.4,30.2Z" transform="translate(-86.5 -101.5)"/><path d="M781.31,219a29.87,29.87,0,0,0,11,14.8,30.25,30.25,0,0,0,17.8,5.8,17.19,17.19,0,0,0,4-.2l1.6-.2,1.6-.2,1.2-.2,1-.2a43.23,43.23,0,0,0,13-5.6,7.64,7.64,0,0,1,7.4-.6,9.79,9.79,0,0,1,5.8,5.2q3.6,7.4-4.8,13.2-10,5.79-17.6,7.6l-1.4.2-1.6.2-2,.2-2.2.2-3,.2h-3a50.19,50.19,0,0,1-50.2-50.2q0-21,14.6-35.6t35.6-14.6q20.21,0,34.2,12.8,16,14.4,16,37.4a10.92,10.92,0,0,1-2.8,7,11.21,11.21,0,0,1-7.2,2.8Zm57.8-19.8a26.58,26.58,0,0,0-11.6-15.4,31.42,31.42,0,0,0-35.2.8,29.89,29.89,0,0,0-11,14.6Z" transform="translate(-86.5 -101.5)"/><path d="M912.11,249.6a11,11,0,0,1-2.8,7,9.6,9.6,0,0,1-7,3,9.17,9.17,0,0,1-7-3,9.6,9.6,0,0,1-3-7V209.4a50.19,50.19,0,0,1,50.2-50.2,11.16,11.16,0,0,1,7.2,2.8,10.15,10.15,0,0,1,0,14,9.82,9.82,0,0,1-7.2,3,29.11,29.11,0,0,0-21.4,8.8,29.46,29.46,0,0,0-9,21.6Z" transform="translate(-86.5 -101.5)"/><path d="M326.53,304.18V271.24a2.78,2.78,0,0,1,.94-2.13,4.26,4.26,0,0,1,5.13,0,2.79,2.79,0,0,1,.95,2.13v10.88h9.36a3.35,3.35,0,0,1,2.29.82,2.77,2.77,0,0,1,0,4.18,3.36,3.36,0,0,1-2.29.83h-9.36v15.68q0,6.47,1.35,8.78t6,2.33c.18,0,.46,0,.85,0s.68,0,.86,0q4.68,0,4.68,2.84t-5.13,3q-9,0-12.33-3.86T326.53,304.18Z" transform="translate(-86.5 -101.5)"/><path d="M382,316.87q-4.41,3.93-12.42,3.94t-12.42-3.94a12.93,12.93,0,0,1-4.41-10.09V293.62a12.93,12.93,0,0,1,4.41-10.09q4.41-3.93,12.42-3.94T382,283.53a12.93,12.93,0,0,1,4.41,10.09v13.16A12.93,12.93,0,0,1,382,316.87Zm-19.71-3.94q2.52,2.2,7.29,2.2t7.29-2.2a7.74,7.74,0,0,0,2.52-6.15V293.54a7.64,7.64,0,0,0-2.52-6.11q-2.52-2.16-7.29-2.16t-7.29,2.16a7.64,7.64,0,0,0-2.52,6.11v13.24A7.74,7.74,0,0,0,362.26,312.93Z" transform="translate(-86.5 -101.5)"/><path d="M422.11,310.48V282.9a2.79,2.79,0,0,1,.9-2.16,4.52,4.52,0,0,1,5.22,0,2.83,2.83,0,0,1,.9,2.16v27.58a14.83,14.83,0,0,0,.18,2.52,5.12,5.12,0,0,0,.36,1.38,5.19,5.19,0,0,0,.58.87,3.45,3.45,0,0,1,.5.75,3.92,3.92,0,0,1,.63,1.58,2.52,2.52,0,0,1-.95,1.93,3.5,3.5,0,0,1-2.38.82,4.66,4.66,0,0,1-3.87-2.36,28.22,28.22,0,0,1-12.78,2.84q-7,0-10.67-4t-3.64-10.88v-23a2.74,2.74,0,0,1,.94-2.12,4.22,4.22,0,0,1,5.13,0,2.75,2.75,0,0,1,.95,2.12v23q0,4.5,2.11,6.94a7.72,7.72,0,0,0,6.17,2.44,20.15,20.15,0,0,0,9.9-2.6C422.17,311.64,422.11,310.9,422.11,310.48Z" transform="translate(-86.5 -101.5)"/><path d="M450.19,291.1v26.63a2.76,2.76,0,0,1-1,2.21,4,4,0,0,1-4.95,0,2.75,2.75,0,0,1-1-2.21V291.1a9.06,9.06,0,0,0-1.44-5.52A2.39,2.39,0,0,1,442,282a3.45,3.45,0,0,1,2.29-.79,4.42,4.42,0,0,1,3.61,2.13A25.15,25.15,0,0,1,460.26,280q4.68,0,4.68,3a3,3,0,0,1-1,2.33,3.32,3.32,0,0,1-2.47.82,32.72,32.72,0,0,0-3.7,0,17.46,17.46,0,0,0-3.46.79,19.38,19.38,0,0,0-4.28,2C450.12,290,450.19,290.73,450.19,291.1Z" transform="translate(-86.5 -101.5)"/><path d="M498.33,291a10.09,10.09,0,0,1,3.78-8.27q3.78-3.08,10.8-3.08a29,29,0,0,1,8.19,1.11c2.52.73,3.78,1.84,3.78,3.31a2.56,2.56,0,0,1-.94,2,3.34,3.34,0,0,1-2.3.83,4.14,4.14,0,0,1-1.62-.39,17.66,17.66,0,0,0-6.84-1.42q-8,0-8,5.52a4.32,4.32,0,0,0,.95,2.91,9.08,9.08,0,0,0,3.28,2.13,42.66,42.66,0,0,0,4.05,1.42c1.86.58,3.41,1.11,4.64,1.61a22.53,22.53,0,0,1,3.87,2.09,8.92,8.92,0,0,1,3.1,3.47,11,11,0,0,1,1.08,5,10.14,10.14,0,0,1-3.87,8.47q-3.87,3-11.25,3a36.88,36.88,0,0,1-8.95-1.07q-4.27-1.07-4.28-3.5a2.65,2.65,0,0,1,.9-2,3.35,3.35,0,0,1,2.43-.87,3.17,3.17,0,0,1,.9.16,28.72,28.72,0,0,0,9,1.81q8.28,0,8.28-5.83a5.15,5.15,0,0,0-3.33-4.89,26,26,0,0,0-4-1.42c-1.8-.52-3.39-1.05-4.77-1.57a28.35,28.35,0,0,1-4.27-2.09,9.18,9.18,0,0,1-3.42-3.47A10.21,10.21,0,0,1,498.33,291Z" transform="translate(-86.5 -101.5)"/><path d="M551,315.37a26,26,0,0,0,9.36-2.21,3.08,3.08,0,0,1,1.26-.23,3.2,3.2,0,0,1,2.25.82,2.57,2.57,0,0,1,.9,1.93q0,2.61-4.86,3.86a38.61,38.61,0,0,1-9.72,1.27q-7.47,0-11.74-3.67a11.83,11.83,0,0,1-4.28-9.41V293a12.06,12.06,0,0,1,4.32-9.61q4.32-3.7,12.15-3.71,7.29,0,11.12,3.43t3.82,9.42q0,11.66-15.21,11.66a62.84,62.84,0,0,1-9.18-.71v4.65a6.33,6.33,0,0,0,2.52,5.32Q546.21,315.38,551,315.37Zm7.65-22.85q0-7.26-8.19-7.25a10.75,10.75,0,0,0-6.79,1.93,6.3,6.3,0,0,0-2.48,5.24v6a80.17,80.17,0,0,0,9.45.55q4.68,0,6.35-1.77A6.59,6.59,0,0,0,558.63,292.52Z" transform="translate(-86.5 -101.5)"/><path d="M574.65,304.18V271.24a2.79,2.79,0,0,1,1-2.13,4.26,4.26,0,0,1,5.13,0,2.78,2.78,0,0,1,.94,2.13v10.88H591a3.38,3.38,0,0,1,2.3.82,2.79,2.79,0,0,1,0,4.18,3.39,3.39,0,0,1-2.3.83h-9.36v15.68q0,6.47,1.35,8.78t6,2.33c.18,0,.47,0,.86,0s.67,0,.85,0q4.68,0,4.68,2.84t-5.13,3q-9,0-12.33-3.86T574.65,304.18Z" transform="translate(-86.5 -101.5)"/></svg>